# https://github.com/mikedh/trimesh

o Main factory | footprint
v -43.81254916 17.69988000 0.00000000 0.85490196 0.87450980 0.87450980
v 39.77976597 12.42331200 0.00000000 0.85490196 0.87450980 0.87450980
v 38.25008959 -11.71086400 0.00000000 0.85490196 0.87450980 0.87450980
v -45.34222554 -6.43429600 0.00000000 0.85490196 0.87450980 0.87450980
v -43.81254916 17.69988000 7.80000000 0.85490196 0.87450980 0.87450980
v 39.77976597 12.42331200 7.80000000 0.85490196 0.87450980 0.87450980
v 38.25008959 -11.71086400 7.80000000 0.85490196 0.87450980 0.87450980
v -45.34222554 -6.43429600 7.80000000 0.85490196 0.87450980 0.87450980
f 1 3 2
f 5 6 7
f 1 4 3
f 5 7 8
f 1 2 6
f 1 6 5
f 2 3 7
f 2 7 6
f 3 4 8
f 3 8 7
f 4 1 5
f 4 5 8

o Main factory | parapet north
v -43.84002718 17.26546128 7.80000000 0.28235294 0.32941176 0.36862745
v -43.84002718 17.26546128 8.35000000 0.28235294 0.32941176 0.36862745
v -43.81260530 17.69988355 7.80000000 0.28235294 0.32941176 0.36862745
v -43.81260530 17.69988355 8.35000000 0.28235294 0.32941176 0.36862745
v 39.75228794 11.98889328 7.80000000 0.28235294 0.32941176 0.36862745
v 39.75228794 11.98889328 8.35000000 0.28235294 0.32941176 0.36862745
v 39.77970983 12.42331555 7.80000000 0.28235294 0.32941176 0.36862745
v 39.77970983 12.42331555 8.35000000 0.28235294 0.32941176 0.36862745
f 10 12 9
f 13 10 9
f 9 12 11
f 11 13 9
f 10 16 12
f 14 10 13
f 14 16 10
f 12 16 11
f 15 13 11
f 11 16 15
f 15 14 13
f 16 14 15

o Main factory | parapet south
v -45.34216939 -6.43429955 7.80000000 0.28235294 0.32941176 0.36862745
v -45.34216939 -6.43429955 8.35000000 0.28235294 0.32941176 0.36862745
v -45.31474751 -5.99987728 7.80000000 0.28235294 0.32941176 0.36862745
v -45.31474751 -5.99987728 8.35000000 0.28235294 0.32941176 0.36862745
v 38.25014574 -11.71086755 7.80000000 0.28235294 0.32941176 0.36862745
v 38.25014574 -11.71086755 8.35000000 0.28235294 0.32941176 0.36862745
v 38.27756762 -11.27644528 7.80000000 0.28235294 0.32941176 0.36862745
v 38.27756762 -11.27644528 8.35000000 0.28235294 0.32941176 0.36862745
f 18 20 17
f 21 18 17
f 17 20 19
f 19 21 17
f 18 24 20
f 22 18 21
f 22 24 18
f 20 24 19
f 23 21 19
f 19 24 23
f 23 22 21
f 24 22 23

o Main factory | pale roof central strip
v -39.89747267 0.00662198 7.81000000 0.92156863 0.92156863 0.87843137
v -39.89747267 0.00662198 7.97000000 0.92156863 0.92156863 0.87843137
v -39.45567567 7.00564746 7.81000000 0.92156863 0.92156863 0.87843137
v -39.45567567 7.00564746 7.97000000 0.92156863 0.92156863 0.87843137
v 35.33561095 -4.74228922 7.81000000 0.92156863 0.92156863 0.87843137
v 35.33561095 -4.74228922 7.97000000 0.92156863 0.92156863 0.87843137
v 35.77740795 2.25673626 7.81000000 0.92156863 0.92156863 0.87843137
v 35.77740795 2.25673626 7.97000000 0.92156863 0.92156863 0.87843137
f 26 28 25
f 29 26 25
f 25 28 27
f 27 29 25
f 26 32 28
f 30 26 29
f 30 32 26
f 28 32 27
f 31 29 27
f 27 32 31
f 31 30 29
f 32 30 31

o Main factory | north roof grey strip
v -41.06433861 8.07641959 7.82000000 0.66274510 0.66274510 0.62352941
v -41.06433861 8.07641959 7.98000000 0.66274510 0.66274510 0.62352941
v -40.53113534 16.52351929 7.82000000 0.66274510 0.66274510 0.62352941
v -40.53113534 16.52351929 7.98000000 0.66274510 0.66274510 0.62352941
v 35.84059131 3.22197703 7.82000000 0.66274510 0.66274510 0.62352941
v 35.84059131 3.22197703 7.98000000 0.66274510 0.66274510 0.62352941
v 36.37379458 11.66907673 7.82000000 0.66274510 0.66274510 0.62352941
v 36.37379458 11.66907673 7.98000000 0.66274510 0.66274510 0.62352941
f 34 36 33
f 37 34 33
f 33 36 35
f 35 37 33
f 34 40 36
f 38 34 37
f 38 40 34
f 36 40 35
f 39 37 35
f 35 40 39
f 39 38 37
f 40 38 39

o Main factory | dark solar field
v -38.56252947 -5.40840442 7.83000000 0.09803922 0.15686275 0.20392157
v -38.56252947 -5.40840442 7.94000000 0.09803922 0.15686275 0.20392157
v -38.30354503 -1.30552742 7.83000000 0.09803922 0.15686275 0.20392157
v -38.30354503 -1.30552742 7.94000000 0.09803922 0.15686275 0.20392157
v 27.47539948 -9.57689314 7.83000000 0.09803922 0.15686275 0.20392157
v 27.47539948 -9.57689314 7.94000000 0.09803922 0.15686275 0.20392157
v 27.73438392 -5.47401614 7.83000000 0.09803922 0.15686275 0.20392157
v 27.73438392 -5.47401614 7.94000000 0.09803922 0.15686275 0.20392157
f 42 44 41
f 45 42 41
f 41 44 43
f 43 45 41
f 42 48 44
f 46 42 45
f 46 48 42
f 44 48 43
f 47 45 43
f 43 48 47
f 47 46 45
f 48 46 47

o Solar module S1-1
v -37.91750416 -3.17143116 7.96000000 0.12549020 0.23529412 0.30196078
v -37.91750416 -3.17143116 8.01500000 0.12549020 0.23529412 0.30196078
v -37.81391039 -1.53028036 7.96000000 0.12549020 0.23529412 0.30196078
v -37.81391039 -1.53028036 8.01500000 0.12549020 0.23529412 0.30196078
v -35.24255008 -3.34028134 7.96000000 0.12549020 0.23529412 0.30196078
v -35.24255008 -3.34028134 8.01500000 0.12549020 0.23529412 0.30196078
v -35.13895630 -1.69913054 7.96000000 0.12549020 0.23529412 0.30196078
v -35.13895630 -1.69913054 8.01500000 0.12549020 0.23529412 0.30196078
f 50 52 49
f 53 50 49
f 49 52 51
f 51 53 49
f 50 56 52
f 54 50 53
f 54 56 50
f 52 56 51
f 55 53 51
f 51 56 55
f 55 54 53
f 56 54 55

o Solar module S1-2
v -34.99177314 -3.35611104 7.96000000 0.12549020 0.23529412 0.30196078
v -34.99177314 -3.35611104 8.01500000 0.12549020 0.23529412 0.30196078
v -34.88817936 -1.71496024 7.96000000 0.12549020 0.23529412 0.30196078
v -34.88817936 -1.71496024 8.01500000 0.12549020 0.23529412 0.30196078
v -32.31681905 -3.52496122 7.96000000 0.12549020 0.23529412 0.30196078
v -32.31681905 -3.52496122 8.01500000 0.12549020 0.23529412 0.30196078
v -32.21322527 -1.88381042 7.96000000 0.12549020 0.23529412 0.30196078
v -32.21322527 -1.88381042 8.01500000 0.12549020 0.23529412 0.30196078
f 58 60 57
f 61 58 57
f 57 60 59
f 59 61 57
f 58 64 60
f 62 58 61
f 62 64 58
f 60 64 59
f 63 61 59
f 59 64 63
f 63 62 61
f 64 62 63

o Solar module S1-3
v -32.06604211 -3.54079092 7.96000000 0.12549020 0.23529412 0.30196078
v -32.06604211 -3.54079092 8.01500000 0.12549020 0.23529412 0.30196078
v -31.96244833 -1.89964012 7.96000000 0.12549020 0.23529412 0.30196078
v -31.96244833 -1.89964012 8.01500000 0.12549020 0.23529412 0.30196078
v -29.39108802 -3.70964110 7.96000000 0.12549020 0.23529412 0.30196078
v -29.39108802 -3.70964110 8.01500000 0.12549020 0.23529412 0.30196078
v -29.28749424 -2.06849030 7.96000000 0.12549020 0.23529412 0.30196078
v -29.28749424 -2.06849030 8.01500000 0.12549020 0.23529412 0.30196078
f 66 68 65
f 69 66 65
f 65 68 67
f 67 69 65
f 66 72 68
f 70 66 69
f 70 72 66
f 68 72 67
f 71 69 67
f 67 72 71
f 71 70 69
f 72 70 71

o Solar module S1-4
v -29.14031108 -3.72547080 7.96000000 0.12549020 0.23529412 0.30196078
v -29.14031108 -3.72547080 8.01500000 0.12549020 0.23529412 0.30196078
v -29.03671730 -2.08432000 7.96000000 0.12549020 0.23529412 0.30196078
v -29.03671730 -2.08432000 8.01500000 0.12549020 0.23529412 0.30196078
v -26.46535699 -3.89432098 7.96000000 0.12549020 0.23529412 0.30196078
v -26.46535699 -3.89432098 8.01500000 0.12549020 0.23529412 0.30196078
v -26.36176321 -2.25317018 7.96000000 0.12549020 0.23529412 0.30196078
v -26.36176321 -2.25317018 8.01500000 0.12549020 0.23529412 0.30196078
f 74 76 73
f 77 74 73
f 73 76 75
f 75 77 73
f 74 80 76
f 78 74 77
f 78 80 74
f 76 80 75
f 79 77 75
f 75 80 79
f 79 78 77
f 80 78 79

o Solar module S1-5
v -26.21458005 -3.91015068 7.96000000 0.12549020 0.23529412 0.30196078
v -26.21458005 -3.91015068 8.01500000 0.12549020 0.23529412 0.30196078
v -26.11098627 -2.26899988 7.96000000 0.12549020 0.23529412 0.30196078
v -26.11098627 -2.26899988 8.01500000 0.12549020 0.23529412 0.30196078
v -23.53962596 -4.07900086 7.96000000 0.12549020 0.23529412 0.30196078
v -23.53962596 -4.07900086 8.01500000 0.12549020 0.23529412 0.30196078
v -23.43603218 -2.43785006 7.96000000 0.12549020 0.23529412 0.30196078
v -23.43603218 -2.43785006 8.01500000 0.12549020 0.23529412 0.30196078
f 82 84 81
f 85 82 81
f 81 84 83
f 83 85 81
f 82 88 84
f 86 82 85
f 86 88 82
f 84 88 83
f 87 85 83
f 83 88 87
f 87 86 85
f 88 86 87

o Solar module S1-6
v -23.28884902 -4.09483056 7.96000000 0.12549020 0.23529412 0.30196078
v -23.28884902 -4.09483056 8.01500000 0.12549020 0.23529412 0.30196078
v -23.18525524 -2.45367976 7.96000000 0.12549020 0.23529412 0.30196078
v -23.18525524 -2.45367976 8.01500000 0.12549020 0.23529412 0.30196078
v -20.61389493 -4.26368074 7.96000000 0.12549020 0.23529412 0.30196078
v -20.61389493 -4.26368074 8.01500000 0.12549020 0.23529412 0.30196078
v -20.51030115 -2.62252994 7.96000000 0.12549020 0.23529412 0.30196078
v -20.51030115 -2.62252994 8.01500000 0.12549020 0.23529412 0.30196078
f 90 92 89
f 93 90 89
f 89 92 91
f 91 93 89
f 90 96 92
f 94 90 93
f 94 96 90
f 92 96 91
f 95 93 91
f 91 96 95
f 95 94 93
f 96 94 95

o Solar module S1-7
v -20.36311799 -4.27951044 7.96000000 0.12549020 0.23529412 0.30196078
v -20.36311799 -4.27951044 8.01500000 0.12549020 0.23529412 0.30196078
v -20.25952421 -2.63835964 7.96000000 0.12549020 0.23529412 0.30196078
v -20.25952421 -2.63835964 8.01500000 0.12549020 0.23529412 0.30196078
v -17.68816390 -4.44836062 7.96000000 0.12549020 0.23529412 0.30196078
v -17.68816390 -4.44836062 8.01500000 0.12549020 0.23529412 0.30196078
v -17.58457013 -2.80720982 7.96000000 0.12549020 0.23529412 0.30196078
v -17.58457013 -2.80720982 8.01500000 0.12549020 0.23529412 0.30196078
f 98 100 97
f 101 98 97
f 97 100 99
f 99 101 97
f 98 104 100
f 102 98 101
f 102 104 98
f 100 104 99
f 103 101 99
f 99 104 103
f 103 102 101
f 104 102 103

o Solar module S1-8
v -17.43738696 -4.46419032 7.96000000 0.12549020 0.23529412 0.30196078
v -17.43738696 -4.46419032 8.01500000 0.12549020 0.23529412 0.30196078
v -17.33379318 -2.82303952 7.96000000 0.12549020 0.23529412 0.30196078
v -17.33379318 -2.82303952 8.01500000 0.12549020 0.23529412 0.30196078
v -14.76243287 -4.63304050 7.96000000 0.12549020 0.23529412 0.30196078
v -14.76243287 -4.63304050 8.01500000 0.12549020 0.23529412 0.30196078
v -14.65883910 -2.99188970 7.96000000 0.12549020 0.23529412 0.30196078
v -14.65883910 -2.99188970 8.01500000 0.12549020 0.23529412 0.30196078
f 106 108 105
f 109 106 105
f 105 108 107
f 107 109 105
f 106 112 108
f 110 106 109
f 110 112 106
f 108 112 107
f 111 109 107
f 107 112 111
f 111 110 109
f 112 110 111

o Solar module S1-9
v -14.51165593 -4.64887020 7.96000000 0.12549020 0.23529412 0.30196078
v -14.51165593 -4.64887020 8.01500000 0.12549020 0.23529412 0.30196078
v -14.40806215 -3.00771940 7.96000000 0.12549020 0.23529412 0.30196078
v -14.40806215 -3.00771940 8.01500000 0.12549020 0.23529412 0.30196078
v -11.83670185 -4.81772038 7.96000000 0.12549020 0.23529412 0.30196078
v -11.83670185 -4.81772038 8.01500000 0.12549020 0.23529412 0.30196078
v -11.73310807 -3.17656958 7.96000000 0.12549020 0.23529412 0.30196078
v -11.73310807 -3.17656958 8.01500000 0.12549020 0.23529412 0.30196078
f 114 116 113
f 117 114 113
f 113 116 115
f 115 117 113
f 114 120 116
f 118 114 117
f 118 120 114
f 116 120 115
f 119 117 115
f 115 120 119
f 119 118 117
f 120 118 119

o Solar module S1-10
v -11.58592490 -4.83355008 7.96000000 0.12549020 0.23529412 0.30196078
v -11.58592490 -4.83355008 8.01500000 0.12549020 0.23529412 0.30196078
v -11.48233112 -3.19239928 7.96000000 0.12549020 0.23529412 0.30196078
v -11.48233112 -3.19239928 8.01500000 0.12549020 0.23529412 0.30196078
v -8.91097082 -5.00240026 7.96000000 0.12549020 0.23529412 0.30196078
v -8.91097082 -5.00240026 8.01500000 0.12549020 0.23529412 0.30196078
v -8.80737704 -3.36124946 7.96000000 0.12549020 0.23529412 0.30196078
v -8.80737704 -3.36124946 8.01500000 0.12549020 0.23529412 0.30196078
f 122 124 121
f 125 122 121
f 121 124 123
f 123 125 121
f 122 128 124
f 126 122 125
f 126 128 122
f 124 128 123
f 127 125 123
f 123 128 127
f 127 126 125
f 128 126 127

o Solar module S1-11
v -8.66019387 -5.01822996 7.96000000 0.12549020 0.23529412 0.30196078
v -8.66019387 -5.01822996 8.01500000 0.12549020 0.23529412 0.30196078
v -8.55660009 -3.37707916 7.96000000 0.12549020 0.23529412 0.30196078
v -8.55660009 -3.37707916 8.01500000 0.12549020 0.23529412 0.30196078
v -5.98523979 -5.18708014 7.96000000 0.12549020 0.23529412 0.30196078
v -5.98523979 -5.18708014 8.01500000 0.12549020 0.23529412 0.30196078
v -5.88164601 -3.54592934 7.96000000 0.12549020 0.23529412 0.30196078
v -5.88164601 -3.54592934 8.01500000 0.12549020 0.23529412 0.30196078
f 130 132 129
f 133 130 129
f 129 132 131
f 131 133 129
f 130 136 132
f 134 130 133
f 134 136 130
f 132 136 131
f 135 133 131
f 131 136 135
f 135 134 133
f 136 134 135

o Solar module S1-12
v -5.73446284 -5.20290984 7.96000000 0.12549020 0.23529412 0.30196078
v -5.73446284 -5.20290984 8.01500000 0.12549020 0.23529412 0.30196078
v -5.63086906 -3.56175904 7.96000000 0.12549020 0.23529412 0.30196078
v -5.63086906 -3.56175904 8.01500000 0.12549020 0.23529412 0.30196078
v -3.05950876 -5.37176002 7.96000000 0.12549020 0.23529412 0.30196078
v -3.05950876 -5.37176002 8.01500000 0.12549020 0.23529412 0.30196078
v -2.95591498 -3.73060922 7.96000000 0.12549020 0.23529412 0.30196078
v -2.95591498 -3.73060922 8.01500000 0.12549020 0.23529412 0.30196078
f 138 140 137
f 141 138 137
f 137 140 139
f 139 141 137
f 138 144 140
f 142 138 141
f 142 144 138
f 140 144 139
f 143 141 139
f 139 144 143
f 143 142 141
f 144 142 143

o Solar module S1-13
v -2.80873181 -5.38758972 7.96000000 0.12549020 0.23529412 0.30196078
v -2.80873181 -5.38758972 8.01500000 0.12549020 0.23529412 0.30196078
v -2.70513803 -3.74643892 7.96000000 0.12549020 0.23529412 0.30196078
v -2.70513803 -3.74643892 8.01500000 0.12549020 0.23529412 0.30196078
v -0.13377773 -5.55643990 7.96000000 0.12549020 0.23529412 0.30196078
v -0.13377773 -5.55643990 8.01500000 0.12549020 0.23529412 0.30196078
v -0.03018395 -3.91528910 7.96000000 0.12549020 0.23529412 0.30196078
v -0.03018395 -3.91528910 8.01500000 0.12549020 0.23529412 0.30196078
f 146 148 145
f 149 146 145
f 145 148 147
f 147 149 145
f 146 152 148
f 150 146 149
f 150 152 146
f 148 152 147
f 151 149 147
f 147 152 151
f 151 150 149
f 152 150 151

o Solar module S1-14
v 0.11699922 -5.57226960 7.96000000 0.12549020 0.23529412 0.30196078
v 0.11699922 -5.57226960 8.01500000 0.12549020 0.23529412 0.30196078
v 0.22059300 -3.93111880 7.96000000 0.12549020 0.23529412 0.30196078
v 0.22059300 -3.93111880 8.01500000 0.12549020 0.23529412 0.30196078
v 2.79195330 -5.74111978 7.96000000 0.12549020 0.23529412 0.30196078
v 2.79195330 -5.74111978 8.01500000 0.12549020 0.23529412 0.30196078
v 2.89554708 -4.09996898 7.96000000 0.12549020 0.23529412 0.30196078
v 2.89554708 -4.09996898 8.01500000 0.12549020 0.23529412 0.30196078
f 154 156 153
f 157 154 153
f 153 156 155
f 155 157 153
f 154 160 156
f 158 154 157
f 158 160 154
f 156 160 155
f 159 157 155
f 155 160 159
f 159 158 157
f 160 158 159

o Solar module S1-15
v 3.04273025 -5.75694948 7.96000000 0.12549020 0.23529412 0.30196078
v 3.04273025 -5.75694948 8.01500000 0.12549020 0.23529412 0.30196078
v 3.14632403 -4.11579868 7.96000000 0.12549020 0.23529412 0.30196078
v 3.14632403 -4.11579868 8.01500000 0.12549020 0.23529412 0.30196078
v 5.71768433 -5.92579966 7.96000000 0.12549020 0.23529412 0.30196078
v 5.71768433 -5.92579966 8.01500000 0.12549020 0.23529412 0.30196078
v 5.82127811 -4.28464886 7.96000000 0.12549020 0.23529412 0.30196078
v 5.82127811 -4.28464886 8.01500000 0.12549020 0.23529412 0.30196078
f 162 164 161
f 165 162 161
f 161 164 163
f 163 165 161
f 162 168 164
f 166 162 165
f 166 168 162
f 164 168 163
f 167 165 163
f 163 168 167
f 167 166 165
f 168 166 167

o Solar module S1-16
v 5.96846128 -5.94162936 7.96000000 0.12549020 0.23529412 0.30196078
v 5.96846128 -5.94162936 8.01500000 0.12549020 0.23529412 0.30196078
v 6.07205506 -4.30047856 7.96000000 0.12549020 0.23529412 0.30196078
v 6.07205506 -4.30047856 8.01500000 0.12549020 0.23529412 0.30196078
v 8.64341536 -6.11047954 7.96000000 0.12549020 0.23529412 0.30196078
v 8.64341536 -6.11047954 8.01500000 0.12549020 0.23529412 0.30196078
v 8.74700914 -4.46932874 7.96000000 0.12549020 0.23529412 0.30196078
v 8.74700914 -4.46932874 8.01500000 0.12549020 0.23529412 0.30196078
f 170 172 169
f 173 170 169
f 169 172 171
f 171 173 169
f 170 176 172
f 174 170 173
f 174 176 170
f 172 176 171
f 175 173 171
f 171 176 175
f 175 174 173
f 176 174 175

o Solar module S1-17
v 8.89419231 -6.12630924 7.96000000 0.12549020 0.23529412 0.30196078
v 8.89419231 -6.12630924 8.01500000 0.12549020 0.23529412 0.30196078
v 8.99778609 -4.48515844 7.96000000 0.12549020 0.23529412 0.30196078
v 8.99778609 -4.48515844 8.01500000 0.12549020 0.23529412 0.30196078
v 11.56914639 -6.29515942 7.96000000 0.12549020 0.23529412 0.30196078
v 11.56914639 -6.29515942 8.01500000 0.12549020 0.23529412 0.30196078
v 11.67274017 -4.65400862 7.96000000 0.12549020 0.23529412 0.30196078
v 11.67274017 -4.65400862 8.01500000 0.12549020 0.23529412 0.30196078
f 178 180 177
f 181 178 177
f 177 180 179
f 179 181 177
f 178 184 180
f 182 178 181
f 182 184 178
f 180 184 179
f 183 181 179
f 179 184 183
f 183 182 181
f 184 182 183

o Solar module S1-18
v 11.81992334 -6.31098912 7.96000000 0.12549020 0.23529412 0.30196078
v 11.81992334 -6.31098912 8.01500000 0.12549020 0.23529412 0.30196078
v 11.92351711 -4.66983832 7.96000000 0.12549020 0.23529412 0.30196078
v 11.92351711 -4.66983832 8.01500000 0.12549020 0.23529412 0.30196078
v 14.49487742 -6.47983930 7.96000000 0.12549020 0.23529412 0.30196078
v 14.49487742 -6.47983930 8.01500000 0.12549020 0.23529412 0.30196078
v 14.59847120 -4.83868850 7.96000000 0.12549020 0.23529412 0.30196078
v 14.59847120 -4.83868850 8.01500000 0.12549020 0.23529412 0.30196078
f 186 188 185
f 189 186 185
f 185 188 187
f 187 189 185
f 186 192 188
f 190 186 189
f 190 192 186
f 188 192 187
f 191 189 187
f 187 192 191
f 191 190 189
f 192 190 191

o Solar module S1-19
v 14.74565437 -6.49566900 7.96000000 0.12549020 0.23529412 0.30196078
v 14.74565437 -6.49566900 8.01500000 0.12549020 0.23529412 0.30196078
v 14.84924814 -4.85451820 7.96000000 0.12549020 0.23529412 0.30196078
v 14.84924814 -4.85451820 8.01500000 0.12549020 0.23529412 0.30196078
v 17.42060845 -6.66451918 7.96000000 0.12549020 0.23529412 0.30196078
v 17.42060845 -6.66451918 8.01500000 0.12549020 0.23529412 0.30196078
v 17.52420223 -5.02336838 7.96000000 0.12549020 0.23529412 0.30196078
v 17.52420223 -5.02336838 8.01500000 0.12549020 0.23529412 0.30196078
f 194 196 193
f 197 194 193
f 193 196 195
f 195 197 193
f 194 200 196
f 198 194 197
f 198 200 194
f 196 200 195
f 199 197 195
f 195 200 199
f 199 198 197
f 200 198 199

o Solar module S1-20
v 17.67138540 -6.68034888 7.96000000 0.12549020 0.23529412 0.30196078
v 17.67138540 -6.68034888 8.01500000 0.12549020 0.23529412 0.30196078
v 17.77497917 -5.03919808 7.96000000 0.12549020 0.23529412 0.30196078
v 17.77497917 -5.03919808 8.01500000 0.12549020 0.23529412 0.30196078
v 20.34633948 -6.84919906 7.96000000 0.12549020 0.23529412 0.30196078
v 20.34633948 -6.84919906 8.01500000 0.12549020 0.23529412 0.30196078
v 20.44993326 -5.20804826 7.96000000 0.12549020 0.23529412 0.30196078
v 20.44993326 -5.20804826 8.01500000 0.12549020 0.23529412 0.30196078
f 202 204 201
f 205 202 201
f 201 204 203
f 203 205 201
f 202 208 204
f 206 202 205
f 206 208 202
f 204 208 203
f 207 205 203
f 203 208 207
f 207 206 205
f 208 206 207

o Solar module S1-21
v 20.59711642 -6.86502876 7.96000000 0.12549020 0.23529412 0.30196078
v 20.59711642 -6.86502876 8.01500000 0.12549020 0.23529412 0.30196078
v 20.70071020 -5.22387796 7.96000000 0.12549020 0.23529412 0.30196078
v 20.70071020 -5.22387796 8.01500000 0.12549020 0.23529412 0.30196078
v 23.27207051 -7.03387894 7.96000000 0.12549020 0.23529412 0.30196078
v 23.27207051 -7.03387894 8.01500000 0.12549020 0.23529412 0.30196078
v 23.37566429 -5.39272814 7.96000000 0.12549020 0.23529412 0.30196078
v 23.37566429 -5.39272814 8.01500000 0.12549020 0.23529412 0.30196078
f 210 212 209
f 213 210 209
f 209 212 211
f 211 213 209
f 210 216 212
f 214 210 213
f 214 216 210
f 212 216 211
f 215 213 211
f 211 216 215
f 215 214 213
f 216 214 215

o Solar module S1-22
v 23.52284745 -7.04970864 7.96000000 0.12549020 0.23529412 0.30196078
v 23.52284745 -7.04970864 8.01500000 0.12549020 0.23529412 0.30196078
v 23.62644123 -5.40855784 7.96000000 0.12549020 0.23529412 0.30196078
v 23.62644123 -5.40855784 8.01500000 0.12549020 0.23529412 0.30196078
v 26.19780154 -7.21855882 7.96000000 0.12549020 0.23529412 0.30196078
v 26.19780154 -7.21855882 8.01500000 0.12549020 0.23529412 0.30196078
v 26.30139532 -5.57740802 7.96000000 0.12549020 0.23529412 0.30196078
v 26.30139532 -5.57740802 8.01500000 0.12549020 0.23529412 0.30196078
f 218 220 217
f 221 218 217
f 217 220 219
f 219 221 217
f 218 224 220
f 222 218 221
f 222 224 218
f 220 224 219
f 223 221 219
f 219 224 223
f 223 222 221
f 224 222 223

o Solar module S2-1
v -38.03528925 -5.02976271 7.96000000 0.12549020 0.23529412 0.30196078
v -38.03528925 -5.02976271 8.01500000 0.12549020 0.23529412 0.30196078
v -37.93169547 -3.38861191 7.96000000 0.12549020 0.23529412 0.30196078
v -37.93169547 -3.38861191 8.01500000 0.12549020 0.23529412 0.30196078
v -35.36033516 -5.19861289 7.96000000 0.12549020 0.23529412 0.30196078
v -35.36033516 -5.19861289 8.01500000 0.12549020 0.23529412 0.30196078
v -35.25674138 -3.55746209 7.96000000 0.12549020 0.23529412 0.30196078
v -35.25674138 -3.55746209 8.01500000 0.12549020 0.23529412 0.30196078
f 226 228 225
f 229 226 225
f 225 228 227
f 227 229 225
f 226 232 228
f 230 226 229
f 230 232 226
f 228 232 227
f 231 229 227
f 227 232 231
f 231 230 229
f 232 230 231

o Solar module S2-2
v -35.10955822 -5.21444259 7.96000000 0.12549020 0.23529412 0.30196078
v -35.10955822 -5.21444259 8.01500000 0.12549020 0.23529412 0.30196078
v -35.00596444 -3.57329179 7.96000000 0.12549020 0.23529412 0.30196078
v -35.00596444 -3.57329179 8.01500000 0.12549020 0.23529412 0.30196078
v -32.43460413 -5.38329277 7.96000000 0.12549020 0.23529412 0.30196078
v -32.43460413 -5.38329277 8.01500000 0.12549020 0.23529412 0.30196078
v -32.33101035 -3.74214197 7.96000000 0.12549020 0.23529412 0.30196078
v -32.33101035 -3.74214197 8.01500000 0.12549020 0.23529412 0.30196078
f 234 236 233
f 237 234 233
f 233 236 235
f 235 237 233
f 234 240 236
f 238 234 237
f 238 240 234
f 236 240 235
f 239 237 235
f 235 240 239
f 239 238 237
f 240 238 239

o Solar module S2-3
v -32.18382719 -5.39912247 7.96000000 0.12549020 0.23529412 0.30196078
v -32.18382719 -5.39912247 8.01500000 0.12549020 0.23529412 0.30196078
v -32.08023341 -3.75797167 7.96000000 0.12549020 0.23529412 0.30196078
v -32.08023341 -3.75797167 8.01500000 0.12549020 0.23529412 0.30196078
v -29.50887310 -5.56797265 7.96000000 0.12549020 0.23529412 0.30196078
v -29.50887310 -5.56797265 8.01500000 0.12549020 0.23529412 0.30196078
v -29.40527932 -3.92682185 7.96000000 0.12549020 0.23529412 0.30196078
v -29.40527932 -3.92682185 8.01500000 0.12549020 0.23529412 0.30196078
f 242 244 241
f 245 242 241
f 241 244 243
f 243 245 241
f 242 248 244
f 246 242 245
f 246 248 242
f 244 248 243
f 247 245 243
f 243 248 247
f 247 246 245
f 248 246 247

o Solar module S2-4
v -29.25809616 -5.58380235 7.96000000 0.12549020 0.23529412 0.30196078
v -29.25809616 -5.58380235 8.01500000 0.12549020 0.23529412 0.30196078
v -29.15450238 -3.94265155 7.96000000 0.12549020 0.23529412 0.30196078
v -29.15450238 -3.94265155 8.01500000 0.12549020 0.23529412 0.30196078
v -26.58314207 -5.75265253 7.96000000 0.12549020 0.23529412 0.30196078
v -26.58314207 -5.75265253 8.01500000 0.12549020 0.23529412 0.30196078
v -26.47954829 -4.11150173 7.96000000 0.12549020 0.23529412 0.30196078
v -26.47954829 -4.11150173 8.01500000 0.12549020 0.23529412 0.30196078
f 250 252 249
f 253 250 249
f 249 252 251
f 251 253 249
f 250 256 252
f 254 250 253
f 254 256 250
f 252 256 251
f 255 253 251
f 251 256 255
f 255 254 253
f 256 254 255

o Solar module S2-5
v -26.33236513 -5.76848223 7.96000000 0.12549020 0.23529412 0.30196078
v -26.33236513 -5.76848223 8.01500000 0.12549020 0.23529412 0.30196078
v -26.22877135 -4.12733143 7.96000000 0.12549020 0.23529412 0.30196078
v -26.22877135 -4.12733143 8.01500000 0.12549020 0.23529412 0.30196078
v -23.65741104 -5.93733241 7.96000000 0.12549020 0.23529412 0.30196078
v -23.65741104 -5.93733241 8.01500000 0.12549020 0.23529412 0.30196078
v -23.55381727 -4.29618161 7.96000000 0.12549020 0.23529412 0.30196078
v -23.55381727 -4.29618161 8.01500000 0.12549020 0.23529412 0.30196078
f 258 260 257
f 261 258 257
f 257 260 259
f 259 261 257
f 258 264 260
f 262 258 261
f 262 264 258
f 260 264 259
f 263 261 259
f 259 264 263
f 263 262 261
f 264 262 263

o Solar module S2-6
v -23.40663410 -5.95316211 7.96000000 0.12549020 0.23529412 0.30196078
v -23.40663410 -5.95316211 8.01500000 0.12549020 0.23529412 0.30196078
v -23.30304032 -4.31201131 7.96000000 0.12549020 0.23529412 0.30196078
v -23.30304032 -4.31201131 8.01500000 0.12549020 0.23529412 0.30196078
v -20.73168001 -6.12201229 7.96000000 0.12549020 0.23529412 0.30196078
v -20.73168001 -6.12201229 8.01500000 0.12549020 0.23529412 0.30196078
v -20.62808624 -4.48086149 7.96000000 0.12549020 0.23529412 0.30196078
v -20.62808624 -4.48086149 8.01500000 0.12549020 0.23529412 0.30196078
f 266 268 265
f 269 266 265
f 265 268 267
f 267 269 265
f 266 272 268
f 270 266 269
f 270 272 266
f 268 272 267
f 271 269 267
f 267 272 271
f 271 270 269
f 272 270 271

o Solar module S2-7
v -20.48090307 -6.13784199 7.96000000 0.12549020 0.23529412 0.30196078
v -20.48090307 -6.13784199 8.01500000 0.12549020 0.23529412 0.30196078
v -20.37730929 -4.49669119 7.96000000 0.12549020 0.23529412 0.30196078
v -20.37730929 -4.49669119 8.01500000 0.12549020 0.23529412 0.30196078
v -17.80594899 -6.30669217 7.96000000 0.12549020 0.23529412 0.30196078
v -17.80594899 -6.30669217 8.01500000 0.12549020 0.23529412 0.30196078
v -17.70235521 -4.66554137 7.96000000 0.12549020 0.23529412 0.30196078
v -17.70235521 -4.66554137 8.01500000 0.12549020 0.23529412 0.30196078
f 274 276 273
f 277 274 273
f 273 276 275
f 275 277 273
f 274 280 276
f 278 274 277
f 278 280 274
f 276 280 275
f 279 277 275
f 275 280 279
f 279 278 277
f 280 278 279

o Solar module S2-8
v -17.55517204 -6.32252187 7.96000000 0.12549020 0.23529412 0.30196078
v -17.55517204 -6.32252187 8.01500000 0.12549020 0.23529412 0.30196078
v -17.45157826 -4.68137107 7.96000000 0.12549020 0.23529412 0.30196078
v -17.45157826 -4.68137107 8.01500000 0.12549020 0.23529412 0.30196078
v -14.88021796 -6.49137205 7.96000000 0.12549020 0.23529412 0.30196078
v -14.88021796 -6.49137205 8.01500000 0.12549020 0.23529412 0.30196078
v -14.77662418 -4.85022125 7.96000000 0.12549020 0.23529412 0.30196078
v -14.77662418 -4.85022125 8.01500000 0.12549020 0.23529412 0.30196078
f 282 284 281
f 285 282 281
f 281 284 283
f 283 285 281
f 282 288 284
f 286 282 285
f 286 288 282
f 284 288 283
f 287 285 283
f 283 288 287
f 287 286 285
f 288 286 287

o Solar module S2-9
v -14.62944101 -6.50720175 7.96000000 0.12549020 0.23529412 0.30196078
v -14.62944101 -6.50720175 8.01500000 0.12549020 0.23529412 0.30196078
v -14.52584723 -4.86605095 7.96000000 0.12549020 0.23529412 0.30196078
v -14.52584723 -4.86605095 8.01500000 0.12549020 0.23529412 0.30196078
v -11.95448693 -6.67605193 7.96000000 0.12549020 0.23529412 0.30196078
v -11.95448693 -6.67605193 8.01500000 0.12549020 0.23529412 0.30196078
v -11.85089315 -5.03490113 7.96000000 0.12549020 0.23529412 0.30196078
v -11.85089315 -5.03490113 8.01500000 0.12549020 0.23529412 0.30196078
f 290 292 289
f 293 290 289
f 289 292 291
f 291 293 289
f 290 296 292
f 294 290 293
f 294 296 290
f 292 296 291
f 295 293 291
f 291 296 295
f 295 294 293
f 296 294 295

o Solar module S2-10
v -11.70370998 -6.69188163 7.96000000 0.12549020 0.23529412 0.30196078
v -11.70370998 -6.69188163 8.01500000 0.12549020 0.23529412 0.30196078
v -11.60011620 -5.05073083 7.96000000 0.12549020 0.23529412 0.30196078
v -11.60011620 -5.05073083 8.01500000 0.12549020 0.23529412 0.30196078
v -9.02875590 -6.86073181 7.96000000 0.12549020 0.23529412 0.30196078
v -9.02875590 -6.86073181 8.01500000 0.12549020 0.23529412 0.30196078
v -8.92516212 -5.21958101 7.96000000 0.12549020 0.23529412 0.30196078
v -8.92516212 -5.21958101 8.01500000 0.12549020 0.23529412 0.30196078
f 298 300 297
f 301 298 297
f 297 300 299
f 299 301 297
f 298 304 300
f 302 298 301
f 302 304 298
f 300 304 299
f 303 301 299
f 299 304 303
f 303 302 301
f 304 302 303

o Solar module S2-11
v -8.77797895 -6.87656151 7.96000000 0.12549020 0.23529412 0.30196078
v -8.77797895 -6.87656151 8.01500000 0.12549020 0.23529412 0.30196078
v -8.67438517 -5.23541071 7.96000000 0.12549020 0.23529412 0.30196078
v -8.67438517 -5.23541071 8.01500000 0.12549020 0.23529412 0.30196078
v -6.10302487 -7.04541169 7.96000000 0.12549020 0.23529412 0.30196078
v -6.10302487 -7.04541169 8.01500000 0.12549020 0.23529412 0.30196078
v -5.99943109 -5.40426089 7.96000000 0.12549020 0.23529412 0.30196078
v -5.99943109 -5.40426089 8.01500000 0.12549020 0.23529412 0.30196078
f 306 308 305
f 309 306 305
f 305 308 307
f 307 309 305
f 306 312 308
f 310 306 309
f 310 312 306
f 308 312 307
f 311 309 307
f 307 312 311
f 311 310 309
f 312 310 311

o Solar module S2-12
v -5.85224792 -7.06124139 7.96000000 0.12549020 0.23529412 0.30196078
v -5.85224792 -7.06124139 8.01500000 0.12549020 0.23529412 0.30196078
v -5.74865414 -5.42009059 7.96000000 0.12549020 0.23529412 0.30196078
v -5.74865414 -5.42009059 8.01500000 0.12549020 0.23529412 0.30196078
v -3.17729384 -7.23009157 7.96000000 0.12549020 0.23529412 0.30196078
v -3.17729384 -7.23009157 8.01500000 0.12549020 0.23529412 0.30196078
v -3.07370006 -5.58894077 7.96000000 0.12549020 0.23529412 0.30196078
v -3.07370006 -5.58894077 8.01500000 0.12549020 0.23529412 0.30196078
f 314 316 313
f 317 314 313
f 313 316 315
f 315 317 313
f 314 320 316
f 318 314 317
f 318 320 314
f 316 320 315
f 319 317 315
f 315 320 319
f 319 318 317
f 320 318 319

o Solar module S2-13
v -2.92651689 -7.24592127 7.96000000 0.12549020 0.23529412 0.30196078
v -2.92651689 -7.24592127 8.01500000 0.12549020 0.23529412 0.30196078
v -2.82292311 -5.60477047 7.96000000 0.12549020 0.23529412 0.30196078
v -2.82292311 -5.60477047 8.01500000 0.12549020 0.23529412 0.30196078
v -0.25156281 -7.41477145 7.96000000 0.12549020 0.23529412 0.30196078
v -0.25156281 -7.41477145 8.01500000 0.12549020 0.23529412 0.30196078
v -0.14796903 -5.77362065 7.96000000 0.12549020 0.23529412 0.30196078
v -0.14796903 -5.77362065 8.01500000 0.12549020 0.23529412 0.30196078
f 322 324 321
f 325 322 321
f 321 324 323
f 323 325 321
f 322 328 324
f 326 322 325
f 326 328 322
f 324 328 323
f 327 325 323
f 323 328 327
f 327 326 325
f 328 326 327

o Solar module S2-14
v -0.00078586 -7.43060115 7.96000000 0.12549020 0.23529412 0.30196078
v -0.00078586 -7.43060115 8.01500000 0.12549020 0.23529412 0.30196078
v 0.10280792 -5.78945035 7.96000000 0.12549020 0.23529412 0.30196078
v 0.10280792 -5.78945035 8.01500000 0.12549020 0.23529412 0.30196078
v 2.67416822 -7.59945133 7.96000000 0.12549020 0.23529412 0.30196078
v 2.67416822 -7.59945133 8.01500000 0.12549020 0.23529412 0.30196078
v 2.77776200 -5.95830053 7.96000000 0.12549020 0.23529412 0.30196078
v 2.77776200 -5.95830053 8.01500000 0.12549020 0.23529412 0.30196078
f 330 332 329
f 333 330 329
f 329 332 331
f 331 333 329
f 330 336 332
f 334 330 333
f 334 336 330
f 332 336 331
f 335 333 331
f 331 336 335
f 335 334 333
f 336 334 335

o Solar module S2-15
v 2.92494517 -7.61528103 7.96000000 0.12549020 0.23529412 0.30196078
v 2.92494517 -7.61528103 8.01500000 0.12549020 0.23529412 0.30196078
v 3.02853895 -5.97413023 7.96000000 0.12549020 0.23529412 0.30196078
v 3.02853895 -5.97413023 8.01500000 0.12549020 0.23529412 0.30196078
v 5.59989925 -7.78413121 7.96000000 0.12549020 0.23529412 0.30196078
v 5.59989925 -7.78413121 8.01500000 0.12549020 0.23529412 0.30196078
v 5.70349303 -6.14298041 7.96000000 0.12549020 0.23529412 0.30196078
v 5.70349303 -6.14298041 8.01500000 0.12549020 0.23529412 0.30196078
f 338 340 337
f 341 338 337
f 337 340 339
f 339 341 337
f 338 344 340
f 342 338 341
f 342 344 338
f 340 344 339
f 343 341 339
f 339 344 343
f 343 342 341
f 344 342 343

o Solar module S2-16
v 5.85067620 -7.79996091 7.96000000 0.12549020 0.23529412 0.30196078
v 5.85067620 -7.79996091 8.01500000 0.12549020 0.23529412 0.30196078
v 5.95426997 -6.15881011 7.96000000 0.12549020 0.23529412 0.30196078
v 5.95426997 -6.15881011 8.01500000 0.12549020 0.23529412 0.30196078
v 8.52563028 -7.96881109 7.96000000 0.12549020 0.23529412 0.30196078
v 8.52563028 -7.96881109 8.01500000 0.12549020 0.23529412 0.30196078
v 8.62922406 -6.32766029 7.96000000 0.12549020 0.23529412 0.30196078
v 8.62922406 -6.32766029 8.01500000 0.12549020 0.23529412 0.30196078
f 346 348 345
f 349 346 345
f 345 348 347
f 347 349 345
f 346 352 348
f 350 346 349
f 350 352 346
f 348 352 347
f 351 349 347
f 347 352 351
f 351 350 349
f 352 350 351

o Solar module S2-17
v 8.77640723 -7.98464079 7.96000000 0.12549020 0.23529412 0.30196078
v 8.77640723 -7.98464079 8.01500000 0.12549020 0.23529412 0.30196078
v 8.88000100 -6.34348999 7.96000000 0.12549020 0.23529412 0.30196078
v 8.88000100 -6.34348999 8.01500000 0.12549020 0.23529412 0.30196078
v 11.45136131 -8.15349097 7.96000000 0.12549020 0.23529412 0.30196078
v 11.45136131 -8.15349097 8.01500000 0.12549020 0.23529412 0.30196078
v 11.55495509 -6.51234017 7.96000000 0.12549020 0.23529412 0.30196078
v 11.55495509 -6.51234017 8.01500000 0.12549020 0.23529412 0.30196078
f 354 356 353
f 357 354 353
f 353 356 355
f 355 357 353
f 354 360 356
f 358 354 357
f 358 360 354
f 356 360 355
f 359 357 355
f 355 360 359
f 359 358 357
f 360 358 359

o Solar module S2-18
v 11.70213825 -8.16932067 7.96000000 0.12549020 0.23529412 0.30196078
v 11.70213825 -8.16932067 8.01500000 0.12549020 0.23529412 0.30196078
v 11.80573203 -6.52816987 7.96000000 0.12549020 0.23529412 0.30196078
v 11.80573203 -6.52816987 8.01500000 0.12549020 0.23529412 0.30196078
v 14.37709234 -8.33817085 7.96000000 0.12549020 0.23529412 0.30196078
v 14.37709234 -8.33817085 8.01500000 0.12549020 0.23529412 0.30196078
v 14.48068612 -6.69702005 7.96000000 0.12549020 0.23529412 0.30196078
v 14.48068612 -6.69702005 8.01500000 0.12549020 0.23529412 0.30196078
f 362 364 361
f 365 362 361
f 361 364 363
f 363 365 361
f 362 368 364
f 366 362 365
f 366 368 362
f 364 368 363
f 367 365 363
f 363 368 367
f 367 366 365
f 368 366 367

o Solar module S2-19
v 14.62786928 -8.35400055 7.96000000 0.12549020 0.23529412 0.30196078
v 14.62786928 -8.35400055 8.01500000 0.12549020 0.23529412 0.30196078
v 14.73146306 -6.71284975 7.96000000 0.12549020 0.23529412 0.30196078
v 14.73146306 -6.71284975 8.01500000 0.12549020 0.23529412 0.30196078
v 17.30282337 -8.52285073 7.96000000 0.12549020 0.23529412 0.30196078
v 17.30282337 -8.52285073 8.01500000 0.12549020 0.23529412 0.30196078
v 17.40641715 -6.88169993 7.96000000 0.12549020 0.23529412 0.30196078
v 17.40641715 -6.88169993 8.01500000 0.12549020 0.23529412 0.30196078
f 370 372 369
f 373 370 369
f 369 372 371
f 371 373 369
f 370 376 372
f 374 370 373
f 374 376 370
f 372 376 371
f 375 373 371
f 371 376 375
f 375 374 373
f 376 374 375

o Solar module S2-20
v 17.55360031 -8.53868043 7.96000000 0.12549020 0.23529412 0.30196078
v 17.55360031 -8.53868043 8.01500000 0.12549020 0.23529412 0.30196078
v 17.65719409 -6.89752963 7.96000000 0.12549020 0.23529412 0.30196078
v 17.65719409 -6.89752963 8.01500000 0.12549020 0.23529412 0.30196078
v 20.22855440 -8.70753061 7.96000000 0.12549020 0.23529412 0.30196078
v 20.22855440 -8.70753061 8.01500000 0.12549020 0.23529412 0.30196078
v 20.33214818 -7.06637981 7.96000000 0.12549020 0.23529412 0.30196078
v 20.33214818 -7.06637981 8.01500000 0.12549020 0.23529412 0.30196078
f 378 380 377
f 381 378 377
f 377 380 379
f 379 381 377
f 378 384 380
f 382 378 381
f 382 384 378
f 380 384 379
f 383 381 379
f 379 384 383
f 383 382 381
f 384 382 383

o Solar module S2-21
v 20.47933134 -8.72336031 7.96000000 0.12549020 0.23529412 0.30196078
v 20.47933134 -8.72336031 8.01500000 0.12549020 0.23529412 0.30196078
v 20.58292512 -7.08220951 7.96000000 0.12549020 0.23529412 0.30196078
v 20.58292512 -7.08220951 8.01500000 0.12549020 0.23529412 0.30196078
v 23.15428543 -8.89221049 7.96000000 0.12549020 0.23529412 0.30196078
v 23.15428543 -8.89221049 8.01500000 0.12549020 0.23529412 0.30196078
v 23.25787921 -7.25105969 7.96000000 0.12549020 0.23529412 0.30196078
v 23.25787921 -7.25105969 8.01500000 0.12549020 0.23529412 0.30196078
f 386 388 385
f 389 386 385
f 385 388 387
f 387 389 385
f 386 392 388
f 390 386 389
f 390 392 386
f 388 392 387
f 391 389 387
f 387 392 391
f 391 390 389
f 392 390 391

o Solar module S2-22
v 23.40506237 -8.90804019 7.96000000 0.12549020 0.23529412 0.30196078
v 23.40506237 -8.90804019 8.01500000 0.12549020 0.23529412 0.30196078
v 23.50865615 -7.26688939 7.96000000 0.12549020 0.23529412 0.30196078
v 23.50865615 -7.26688939 8.01500000 0.12549020 0.23529412 0.30196078
v 26.08001646 -9.07689037 7.96000000 0.12549020 0.23529412 0.30196078
v 26.08001646 -9.07689037 8.01500000 0.12549020 0.23529412 0.30196078
v 26.18361024 -7.43573957 7.96000000 0.12549020 0.23529412 0.30196078
v 26.18361024 -7.43573957 8.01500000 0.12549020 0.23529412 0.30196078
f 394 396 393
f 397 394 393
f 393 396 395
f 395 397 393
f 394 400 396
f 398 394 397
f 398 400 394
f 396 400 395
f 399 397 395
f 395 400 399
f 399 398 397
f 400 398 399

o North skylight 1
v -31.80070722 8.58205771 8.00500000 0.45098039 0.52941176 0.54117647
v -31.80070722 8.58205771 8.09000000 0.45098039 0.52941176 0.54117647
v -31.44269931 14.25368180 8.00500000 0.45098039 0.52941176 0.54117647
v -31.44269931 14.25368180 8.09000000 0.45098039 0.52941176 0.54117647
v -29.37653008 8.42903724 8.00500000 0.45098039 0.52941176 0.54117647
v -29.37653008 8.42903724 8.09000000 0.45098039 0.52941176 0.54117647
v -29.01852217 14.10066133 8.00500000 0.45098039 0.52941176 0.54117647
v -29.01852217 14.10066133 8.09000000 0.45098039 0.52941176 0.54117647
f 402 404 401
f 405 402 401
f 401 404 403
f 403 405 401
f 402 408 404
f 406 402 405
f 406 408 402
f 404 408 403
f 407 405 403
f 403 408 407
f 407 406 405
f 408 406 407

o North skylight 2
v -27.45390683 8.30767618 8.00500000 0.45098039 0.52941176 0.54117647
v -27.45390683 8.30767618 8.09000000 0.45098039 0.52941176 0.54117647
v -27.09589892 13.97930027 8.00500000 0.45098039 0.52941176 0.54117647
v -27.09589892 13.97930027 8.09000000 0.45098039 0.52941176 0.54117647
v -25.02972969 8.15465571 8.00500000 0.45098039 0.52941176 0.54117647
v -25.02972969 8.15465571 8.09000000 0.45098039 0.52941176 0.54117647
v -24.67172178 13.82627980 8.00500000 0.45098039 0.52941176 0.54117647
v -24.67172178 13.82627980 8.09000000 0.45098039 0.52941176 0.54117647
f 410 412 409
f 413 410 409
f 409 412 411
f 411 413 409
f 410 416 412
f 414 410 413
f 414 416 410
f 412 416 411
f 415 413 411
f 411 416 415
f 415 414 413
f 416 414 415

o North skylight 3
v -23.10710645 8.03329464 8.00500000 0.45098039 0.52941176 0.54117647
v -23.10710645 8.03329464 8.09000000 0.45098039 0.52941176 0.54117647
v -22.74909853 13.70491873 8.00500000 0.45098039 0.52941176 0.54117647
v -22.74909853 13.70491873 8.09000000 0.45098039 0.52941176 0.54117647
v -20.68292931 7.88027417 8.00500000 0.45098039 0.52941176 0.54117647
v -20.68292931 7.88027417 8.09000000 0.45098039 0.52941176 0.54117647
v -20.32492140 13.55189826 8.00500000 0.45098039 0.52941176 0.54117647
v -20.32492140 13.55189826 8.09000000 0.45098039 0.52941176 0.54117647
f 418 420 417
f 421 418 417
f 417 420 419
f 419 421 417
f 418 424 420
f 422 418 421
f 422 424 418
f 420 424 419
f 423 421 419
f 419 424 423
f 423 422 421
f 424 422 423

o North skylight 4
v -18.76030606 7.75891311 8.00500000 0.45098039 0.52941176 0.54117647
v -18.76030606 7.75891311 8.09000000 0.45098039 0.52941176 0.54117647
v -18.40229815 13.43053720 8.00500000 0.45098039 0.52941176 0.54117647
v -18.40229815 13.43053720 8.09000000 0.45098039 0.52941176 0.54117647
v -16.33612892 7.60589263 8.00500000 0.45098039 0.52941176 0.54117647
v -16.33612892 7.60589263 8.09000000 0.45098039 0.52941176 0.54117647
v -15.97812101 13.27751672 8.00500000 0.45098039 0.52941176 0.54117647
v -15.97812101 13.27751672 8.09000000 0.45098039 0.52941176 0.54117647
f 426 428 425
f 429 426 425
f 425 428 427
f 427 429 425
f 426 432 428
f 430 426 429
f 430 432 426
f 428 432 427
f 431 429 427
f 427 432 431
f 431 430 429
f 432 430 431

o North skylight 5
v -14.41350567 7.48453157 8.00500000 0.45098039 0.52941176 0.54117647
v -14.41350567 7.48453157 8.09000000 0.45098039 0.52941176 0.54117647
v -14.05549776 13.15615566 8.00500000 0.45098039 0.52941176 0.54117647
v -14.05549776 13.15615566 8.09000000 0.45098039 0.52941176 0.54117647
v -11.98932853 7.33151110 8.00500000 0.45098039 0.52941176 0.54117647
v -11.98932853 7.33151110 8.09000000 0.45098039 0.52941176 0.54117647
v -11.63132062 13.00313519 8.00500000 0.45098039 0.52941176 0.54117647
v -11.63132062 13.00313519 8.09000000 0.45098039 0.52941176 0.54117647
f 434 436 433
f 437 434 433
f 433 436 435
f 435 437 433
f 434 440 436
f 438 434 437
f 438 440 434
f 436 440 435
f 439 437 435
f 435 440 439
f 439 438 437
f 440 438 439

o North skylight 6
v -10.06670529 7.21015003 8.00500000 0.45098039 0.52941176 0.54117647
v -10.06670529 7.21015003 8.09000000 0.45098039 0.52941176 0.54117647
v -9.70869737 12.88177412 8.00500000 0.45098039 0.52941176 0.54117647
v -9.70869737 12.88177412 8.09000000 0.45098039 0.52941176 0.54117647
v -7.64252815 7.05712956 8.00500000 0.45098039 0.52941176 0.54117647
v -7.64252815 7.05712956 8.09000000 0.45098039 0.52941176 0.54117647
v -7.28452024 12.72875365 8.00500000 0.45098039 0.52941176 0.54117647
v -7.28452024 12.72875365 8.09000000 0.45098039 0.52941176 0.54117647
f 442 444 441
f 445 442 441
f 441 444 443
f 443 445 441
f 442 448 444
f 446 442 445
f 446 448 442
f 444 448 443
f 447 445 443
f 443 448 447
f 447 446 445
f 448 446 447

o North skylight 7
v -5.71990490 6.93576850 8.00500000 0.45098039 0.52941176 0.54117647
v -5.71990490 6.93576850 8.09000000 0.45098039 0.52941176 0.54117647
v -5.36189699 12.60739259 8.00500000 0.45098039 0.52941176 0.54117647
v -5.36189699 12.60739259 8.09000000 0.45098039 0.52941176 0.54117647
v -3.29572776 6.78274803 8.00500000 0.45098039 0.52941176 0.54117647
v -3.29572776 6.78274803 8.09000000 0.45098039 0.52941176 0.54117647
v -2.93771985 12.45437212 8.00500000 0.45098039 0.52941176 0.54117647
v -2.93771985 12.45437212 8.09000000 0.45098039 0.52941176 0.54117647
f 450 452 449
f 453 450 449
f 449 452 451
f 451 453 449
f 450 456 452
f 454 450 453
f 454 456 450
f 452 456 451
f 455 453 451
f 451 456 455
f 455 454 453
f 456 454 455

o North skylight 8
v -1.37310451 6.66138696 8.00500000 0.45098039 0.52941176 0.54117647
v -1.37310451 6.66138696 8.09000000 0.45098039 0.52941176 0.54117647
v -1.01509660 12.33301105 8.00500000 0.45098039 0.52941176 0.54117647
v -1.01509660 12.33301105 8.09000000 0.45098039 0.52941176 0.54117647
v 1.05107263 6.50836649 8.00500000 0.45098039 0.52941176 0.54117647
v 1.05107263 6.50836649 8.09000000 0.45098039 0.52941176 0.54117647
v 1.40908054 12.17999058 8.00500000 0.45098039 0.52941176 0.54117647
v 1.40908054 12.17999058 8.09000000 0.45098039 0.52941176 0.54117647
f 458 460 457
f 461 458 457
f 457 460 459
f 459 461 457
f 458 464 460
f 462 458 461
f 462 464 458
f 460 464 459
f 463 461 459
f 459 464 463
f 463 462 461
f 464 462 463

o North skylight 9
v 2.97369587 6.38700543 8.00500000 0.45098039 0.52941176 0.54117647
v 2.97369587 6.38700543 8.09000000 0.45098039 0.52941176 0.54117647
v 3.33170379 12.05862952 8.00500000 0.45098039 0.52941176 0.54117647
v 3.33170379 12.05862952 8.09000000 0.45098039 0.52941176 0.54117647
v 5.39787301 6.23398495 8.00500000 0.45098039 0.52941176 0.54117647
v 5.39787301 6.23398495 8.09000000 0.45098039 0.52941176 0.54117647
v 5.75588092 11.90560904 8.00500000 0.45098039 0.52941176 0.54117647
v 5.75588092 11.90560904 8.09000000 0.45098039 0.52941176 0.54117647
f 466 468 465
f 469 466 465
f 465 468 467
f 467 469 465
f 466 472 468
f 470 466 469
f 470 472 466
f 468 472 467
f 471 469 467
f 467 472 471
f 471 470 469
f 472 470 471

o North skylight 10
v 7.32049626 6.11262389 8.00500000 0.45098039 0.52941176 0.54117647
v 7.32049626 6.11262389 8.09000000 0.45098039 0.52941176 0.54117647
v 7.67850417 11.78424798 8.00500000 0.45098039 0.52941176 0.54117647
v 7.67850417 11.78424798 8.09000000 0.45098039 0.52941176 0.54117647
v 9.74467340 5.95960342 8.00500000 0.45098039 0.52941176 0.54117647
v 9.74467340 5.95960342 8.09000000 0.45098039 0.52941176 0.54117647
v 10.10268131 11.63122751 8.00500000 0.45098039 0.52941176 0.54117647
v 10.10268131 11.63122751 8.09000000 0.45098039 0.52941176 0.54117647
f 474 476 473
f 477 474 473
f 473 476 475
f 475 477 473
f 474 480 476
f 478 474 477
f 478 480 474
f 476 480 475
f 479 477 475
f 475 480 479
f 479 478 477
f 480 478 479

o North skylight 11
v 11.66729665 5.83824235 8.00500000 0.45098039 0.52941176 0.54117647
v 11.66729665 5.83824235 8.09000000 0.45098039 0.52941176 0.54117647
v 12.02530456 11.50986644 8.00500000 0.45098039 0.52941176 0.54117647
v 12.02530456 11.50986644 8.09000000 0.45098039 0.52941176 0.54117647
v 14.09147379 5.68522188 8.00500000 0.45098039 0.52941176 0.54117647
v 14.09147379 5.68522188 8.09000000 0.45098039 0.52941176 0.54117647
v 14.44948170 11.35684597 8.00500000 0.45098039 0.52941176 0.54117647
v 14.44948170 11.35684597 8.09000000 0.45098039 0.52941176 0.54117647
f 482 484 481
f 485 482 481
f 481 484 483
f 483 485 481
f 482 488 484
f 486 482 485
f 486 488 482
f 484 488 483
f 487 485 483
f 483 488 487
f 487 486 485
f 488 486 487

o North skylight 12
v 16.01409703 5.56386082 8.00500000 0.45098039 0.52941176 0.54117647
v 16.01409703 5.56386082 8.09000000 0.45098039 0.52941176 0.54117647
v 16.37210495 11.23548491 8.00500000 0.45098039 0.52941176 0.54117647
v 16.37210495 11.23548491 8.09000000 0.45098039 0.52941176 0.54117647
v 18.43827417 5.41084035 8.00500000 0.45098039 0.52941176 0.54117647
v 18.43827417 5.41084035 8.09000000 0.45098039 0.52941176 0.54117647
v 18.79628208 11.08246444 8.00500000 0.45098039 0.52941176 0.54117647
v 18.79628208 11.08246444 8.09000000 0.45098039 0.52941176 0.54117647
f 490 492 489
f 493 490 489
f 489 492 491
f 491 493 489
f 490 496 492
f 494 490 493
f 494 496 490
f 492 496 491
f 495 493 491
f 491 496 495
f 495 494 493
f 496 494 495

o North skylight 13
v 20.36089742 5.28947928 8.00500000 0.45098039 0.52941176 0.54117647
v 20.36089742 5.28947928 8.09000000 0.45098039 0.52941176 0.54117647
v 20.71890533 10.96110337 8.00500000 0.45098039 0.52941176 0.54117647
v 20.71890533 10.96110337 8.09000000 0.45098039 0.52941176 0.54117647
v 22.78507456 5.13645881 8.00500000 0.45098039 0.52941176 0.54117647
v 22.78507456 5.13645881 8.09000000 0.45098039 0.52941176 0.54117647
v 23.14308247 10.80808290 8.00500000 0.45098039 0.52941176 0.54117647
v 23.14308247 10.80808290 8.09000000 0.45098039 0.52941176 0.54117647
f 498 500 497
f 501 498 497
f 497 500 499
f 499 501 497
f 498 504 500
f 502 498 501
f 502 504 498
f 500 504 499
f 503 501 499
f 499 504 503
f 503 502 501
f 504 502 503

o North skylight 14
v 24.70769781 5.01509775 8.00500000 0.45098039 0.52941176 0.54117647
v 24.70769781 5.01509775 8.09000000 0.45098039 0.52941176 0.54117647
v 25.06570572 10.68672184 8.00500000 0.45098039 0.52941176 0.54117647
v 25.06570572 10.68672184 8.09000000 0.45098039 0.52941176 0.54117647
v 27.13187495 4.86207727 8.00500000 0.45098039 0.52941176 0.54117647
v 27.13187495 4.86207727 8.09000000 0.45098039 0.52941176 0.54117647
v 27.48988286 10.53370136 8.00500000 0.45098039 0.52941176 0.54117647
v 27.48988286 10.53370136 8.09000000 0.45098039 0.52941176 0.54117647
f 506 508 505
f 509 506 505
f 505 508 507
f 507 509 505
f 506 512 508
f 510 506 509
f 510 512 506
f 508 512 507
f 511 509 507
f 507 512 511
f 511 510 509
f 512 510 511

o Northern extension
v -13.86524847 26.41623600 0.00000000 0.80000000 0.82352941 0.81176471
v 10.92041694 24.85775600 0.00000000 0.80000000 0.82352941 0.81176471
v 10.26600993 14.40480800 0.00000000 0.80000000 0.82352941 0.81176471
v -14.52783557 15.96328800 0.00000000 0.80000000 0.82352941 0.81176471
v -13.86524847 26.41623600 5.10000000 0.80000000 0.82352941 0.81176471
v 10.92041694 24.85775600 5.10000000 0.80000000 0.82352941 0.81176471
v 10.26600993 14.40480800 5.10000000 0.80000000 0.82352941 0.81176471
v -14.52783557 15.96328800 5.10000000 0.80000000 0.82352941 0.81176471
f 513 515 514
f 517 518 519
f 513 516 515
f 517 519 520
f 513 514 518
f 513 518 517
f 514 515 519
f 514 519 518
f 515 516 520
f 515 520 519
f 516 513 517
f 516 517 520

o Southern red-roofed shed
v -38.32371038 -46.73213600 0.00000000 0.59215686 0.29803922 0.23921569
v 22.25801834 -52.08662800 0.00000000 0.59215686 0.29803922 0.23921569
v 21.02282512 -66.09068400 0.00000000 0.59215686 0.29803922 0.23921569
v -39.55890361 -60.74732400 0.00000000 0.59215686 0.29803922 0.23921569
v -38.32371038 -46.73213600 4.80000000 0.59215686 0.29803922 0.23921569
v 22.25801834 -52.08662800 4.80000000 0.59215686 0.29803922 0.23921569
v 21.02282512 -66.09068400 4.80000000 0.59215686 0.29803922 0.23921569
v -39.55890361 -60.74732400 4.80000000 0.59215686 0.29803922 0.23921569
f 521 523 522
f 525 526 527
f 521 524 523
f 525 527 528
f 521 522 526
f 521 526 525
f 522 523 527
f 522 527 526
f 523 524 528
f 523 528 527
f 524 521 525
f 524 525 528

o Loading shutter 1
v -38.65940440 -6.92882555 0.15000000 0.33725490 0.40784314 0.43529412
v -38.65940440 -6.92882555 4.00000000 0.33725490 0.40784314 0.43529412
v -38.64721690 -6.73574898 0.15000000 0.33725490 0.40784314 0.43529412
v -38.64721690 -6.73574898 4.00000000 0.33725490 0.40784314 0.43529412
v -35.14852717 -7.15044140 0.15000000 0.33725490 0.40784314 0.43529412
v -35.14852717 -7.15044140 4.00000000 0.33725490 0.40784314 0.43529412
v -35.13633966 -6.95736484 0.15000000 0.33725490 0.40784314 0.43529412
v -35.13633966 -6.95736484 4.00000000 0.33725490 0.40784314 0.43529412
f 530 532 529
f 533 530 529
f 529 532 531
f 531 533 529
f 530 536 532
f 534 530 533
f 534 536 530
f 532 536 531
f 535 533 531
f 531 536 535
f 535 534 533
f 536 534 535

o Loading canopy 1
v -39.08840461 -8.40405141 4.05000000 0.18823529 0.27450980 0.36078431
v -39.08840461 -8.40405141 4.22000000 0.18823529 0.27450980 0.36078431
v -38.97414676 -6.59395861 4.05000000 0.18823529 0.27450980 0.36078431
v -38.97414676 -6.59395861 4.22000000 0.18823529 0.27450980 0.36078431
v -34.90878885 -8.66787981 4.05000000 0.18823529 0.27450980 0.36078431
v -34.90878885 -8.66787981 4.22000000 0.18823529 0.27450980 0.36078431
v -34.79453101 -6.85778701 4.05000000 0.18823529 0.27450980 0.36078431
v -34.79453101 -6.85778701 4.22000000 0.18823529 0.27450980 0.36078431
f 538 540 537
f 541 538 537
f 537 540 539
f 539 541 537
f 538 544 540
f 542 538 541
f 542 544 538
f 540 544 539
f 543 541 539
f 539 544 543
f 543 542 541
f 544 542 543

o Loading shutter 2
v -33.05871929 -7.28235560 0.15000000 0.33725490 0.40784314 0.43529412
v -33.05871929 -7.28235560 4.00000000 0.33725490 0.40784314 0.43529412
v -33.04653178 -7.08927904 0.15000000 0.33725490 0.40784314 0.43529412
v -33.04653178 -7.08927904 4.00000000 0.33725490 0.40784314 0.43529412
v -29.54784205 -7.50397146 0.15000000 0.33725490 0.40784314 0.43529412
v -29.54784205 -7.50397146 4.00000000 0.33725490 0.40784314 0.43529412
v -29.53565455 -7.31089489 0.15000000 0.33725490 0.40784314 0.43529412
v -29.53565455 -7.31089489 4.00000000 0.33725490 0.40784314 0.43529412
f 546 548 545
f 549 546 545
f 545 548 547
f 547 549 545
f 546 552 548
f 550 546 549
f 550 552 546
f 548 552 547
f 551 549 547
f 547 552 551
f 551 550 549
f 552 550 551

o Loading canopy 2
v -33.48771950 -8.75758146 4.05000000 0.18823529 0.27450980 0.36078431
v -33.48771950 -8.75758146 4.22000000 0.18823529 0.27450980 0.36078431
v -33.37346165 -6.94748867 4.05000000 0.18823529 0.27450980 0.36078431
v -33.37346165 -6.94748867 4.22000000 0.18823529 0.27450980 0.36078431
v -29.30810374 -9.02140986 4.05000000 0.18823529 0.27450980 0.36078431
v -29.30810374 -9.02140986 4.22000000 0.18823529 0.27450980 0.36078431
v -29.19384589 -7.21131707 4.05000000 0.18823529 0.27450980 0.36078431
v -29.19384589 -7.21131707 4.22000000 0.18823529 0.27450980 0.36078431
f 554 556 553
f 557 554 553
f 553 556 555
f 555 557 553
f 554 560 556
f 558 554 557
f 558 560 554
f 556 560 555
f 559 557 555
f 555 560 559
f 559 558 557
f 560 558 559

o Loading shutter 3
v -27.45803417 -7.63588566 0.15000000 0.33725490 0.40784314 0.43529412
v -27.45803417 -7.63588566 4.00000000 0.33725490 0.40784314 0.43529412
v -27.44584667 -7.44280909 0.15000000 0.33725490 0.40784314 0.43529412
v -27.44584667 -7.44280909 4.00000000 0.33725490 0.40784314 0.43529412
v -23.94715694 -7.85750151 0.15000000 0.33725490 0.40784314 0.43529412
v -23.94715694 -7.85750151 4.00000000 0.33725490 0.40784314 0.43529412
v -23.93496944 -7.66442495 0.15000000 0.33725490 0.40784314 0.43529412
v -23.93496944 -7.66442495 4.00000000 0.33725490 0.40784314 0.43529412
f 562 564 561
f 565 562 561
f 561 564 563
f 563 565 561
f 562 568 564
f 566 562 565
f 566 568 562
f 564 568 563
f 567 565 563
f 563 568 567
f 567 566 565
f 568 566 567

o Loading canopy 3
v -27.88703438 -9.11111152 4.05000000 0.18823529 0.27450980 0.36078431
v -27.88703438 -9.11111152 4.22000000 0.18823529 0.27450980 0.36078431
v -27.77277654 -7.30101872 4.05000000 0.18823529 0.27450980 0.36078431
v -27.77277654 -7.30101872 4.22000000 0.18823529 0.27450980 0.36078431
v -23.70741863 -9.37493992 4.05000000 0.18823529 0.27450980 0.36078431
v -23.70741863 -9.37493992 4.22000000 0.18823529 0.27450980 0.36078431
v -23.59316078 -7.56484712 4.05000000 0.18823529 0.27450980 0.36078431
v -23.59316078 -7.56484712 4.22000000 0.18823529 0.27450980 0.36078431
f 570 572 569
f 573 570 569
f 569 572 571
f 571 573 569
f 570 576 572
f 574 570 573
f 574 576 570
f 572 576 571
f 575 573 571
f 571 576 575
f 575 574 573
f 576 574 575

o Loading shutter 4
v -21.85734906 -7.98941571 0.15000000 0.33725490 0.40784314 0.43529412
v -21.85734906 -7.98941571 4.00000000 0.33725490 0.40784314 0.43529412
v -21.84516156 -7.79633915 0.15000000 0.33725490 0.40784314 0.43529412
v -21.84516156 -7.79633915 4.00000000 0.33725490 0.40784314 0.43529412
v -18.34647182 -8.21103157 0.15000000 0.33725490 0.40784314 0.43529412
v -18.34647182 -8.21103157 4.00000000 0.33725490 0.40784314 0.43529412
v -18.33428432 -8.01795501 0.15000000 0.33725490 0.40784314 0.43529412
v -18.33428432 -8.01795501 4.00000000 0.33725490 0.40784314 0.43529412
f 578 580 577
f 581 578 577
f 577 580 579
f 579 581 577
f 578 584 580
f 582 578 581
f 582 584 578
f 580 584 579
f 583 581 579
f 579 584 583
f 583 582 581
f 584 582 583

o Loading canopy 4
v -22.28634927 -9.46464157 4.05000000 0.18823529 0.27450980 0.36078431
v -22.28634927 -9.46464157 4.22000000 0.18823529 0.27450980 0.36078431
v -22.17209142 -7.65454878 4.05000000 0.18823529 0.27450980 0.36078431
v -22.17209142 -7.65454878 4.22000000 0.18823529 0.27450980 0.36078431
v -18.10673351 -9.72846997 4.05000000 0.18823529 0.27450980 0.36078431
v -18.10673351 -9.72846997 4.22000000 0.18823529 0.27450980 0.36078431
v -17.99247567 -7.91837718 4.05000000 0.18823529 0.27450980 0.36078431
v -17.99247567 -7.91837718 4.22000000 0.18823529 0.27450980 0.36078431
f 586 588 585
f 589 586 585
f 585 588 587
f 587 589 585
f 586 592 588
f 590 586 589
f 590 592 586
f 588 592 587
f 591 589 587
f 587 592 591
f 591 590 589
f 592 590 591

o Loading shutter 5
v -16.25666395 -8.34294577 0.15000000 0.33725490 0.40784314 0.43529412
v -16.25666395 -8.34294577 4.00000000 0.33725490 0.40784314 0.43529412
v -16.24447644 -8.14986921 0.15000000 0.33725490 0.40784314 0.43529412
v -16.24447644 -8.14986921 4.00000000 0.33725490 0.40784314 0.43529412
v -12.74578671 -8.56456163 0.15000000 0.33725490 0.40784314 0.43529412
v -12.74578671 -8.56456163 4.00000000 0.33725490 0.40784314 0.43529412
v -12.73359921 -8.37148506 0.15000000 0.33725490 0.40784314 0.43529412
v -12.73359921 -8.37148506 4.00000000 0.33725490 0.40784314 0.43529412
f 594 596 593
f 597 594 593
f 593 596 595
f 595 597 593
f 594 600 596
f 598 594 597
f 598 600 594
f 596 600 595
f 599 597 595
f 595 600 599
f 599 598 597
f 600 598 599

o Loading canopy 5
v -16.68566415 -9.81817163 4.05000000 0.18823529 0.27450980 0.36078431
v -16.68566415 -9.81817163 4.22000000 0.18823529 0.27450980 0.36078431
v -16.57140631 -8.00807883 4.05000000 0.18823529 0.27450980 0.36078431
v -16.57140631 -8.00807883 4.22000000 0.18823529 0.27450980 0.36078431
v -12.50604840 -10.08200003 4.05000000 0.18823529 0.27450980 0.36078431
v -12.50604840 -10.08200003 4.22000000 0.18823529 0.27450980 0.36078431
v -12.39179055 -8.27190723 4.05000000 0.18823529 0.27450980 0.36078431
v -12.39179055 -8.27190723 4.22000000 0.18823529 0.27450980 0.36078431
f 602 604 601
f 605 602 601
f 601 604 603
f 603 605 601
f 602 608 604
f 606 602 605
f 606 608 602
f 604 608 603
f 607 605 603
f 603 608 607
f 607 606 605
f 608 606 607

o Loading shutter 6
v -10.65597883 -8.69647583 0.15000000 0.33725490 0.40784314 0.43529412
v -10.65597883 -8.69647583 4.00000000 0.33725490 0.40784314 0.43529412
v -10.64379133 -8.50339926 0.15000000 0.33725490 0.40784314 0.43529412
v -10.64379133 -8.50339926 4.00000000 0.33725490 0.40784314 0.43529412
v -7.14510160 -8.91809168 0.15000000 0.33725490 0.40784314 0.43529412
v -7.14510160 -8.91809168 4.00000000 0.33725490 0.40784314 0.43529412
v -7.13291409 -8.72501512 0.15000000 0.33725490 0.40784314 0.43529412
v -7.13291409 -8.72501512 4.00000000 0.33725490 0.40784314 0.43529412
f 610 612 609
f 613 610 609
f 609 612 611
f 611 613 609
f 610 616 612
f 614 610 613
f 614 616 610
f 612 616 611
f 615 613 611
f 611 616 615
f 615 614 613
f 616 614 615

o Loading canopy 6
v -11.08497904 -10.17170169 4.05000000 0.18823529 0.27450980 0.36078431
v -11.08497904 -10.17170169 4.22000000 0.18823529 0.27450980 0.36078431
v -10.97072120 -8.36160889 4.05000000 0.18823529 0.27450980 0.36078431
v -10.97072120 -8.36160889 4.22000000 0.18823529 0.27450980 0.36078431
v -6.90536328 -10.43553009 4.05000000 0.18823529 0.27450980 0.36078431
v -6.90536328 -10.43553009 4.22000000 0.18823529 0.27450980 0.36078431
v -6.79110544 -8.62543729 4.05000000 0.18823529 0.27450980 0.36078431
v -6.79110544 -8.62543729 4.22000000 0.18823529 0.27450980 0.36078431
f 618 620 617
f 621 618 617
f 617 620 619
f 619 621 617
f 618 624 620
f 622 618 621
f 622 624 618
f 620 624 619
f 623 621 619
f 619 624 623
f 623 622 621
f 624 622 623

o Loading shutter 7
v -5.05529372 -9.05000588 0.15000000 0.33725490 0.40784314 0.43529412
v -5.05529372 -9.05000588 4.00000000 0.33725490 0.40784314 0.43529412
v -5.04310622 -8.85692932 0.15000000 0.33725490 0.40784314 0.43529412
v -5.04310622 -8.85692932 4.00000000 0.33725490 0.40784314 0.43529412
v -1.54441648 -9.27162174 0.15000000 0.33725490 0.40784314 0.43529412
v -1.54441648 -9.27162174 4.00000000 0.33725490 0.40784314 0.43529412
v -1.53222898 -9.07854517 0.15000000 0.33725490 0.40784314 0.43529412
v -1.53222898 -9.07854517 4.00000000 0.33725490 0.40784314 0.43529412
f 626 628 625
f 629 626 625
f 625 628 627
f 627 629 625
f 626 632 628
f 630 626 629
f 630 632 626
f 628 632 627
f 631 629 627
f 627 632 631
f 631 630 629
f 632 630 631

o Loading canopy 7
v -5.48429393 -10.52523174 4.05000000 0.18823529 0.27450980 0.36078431
v -5.48429393 -10.52523174 4.22000000 0.18823529 0.27450980 0.36078431
v -5.37003608 -8.71513895 4.05000000 0.18823529 0.27450980 0.36078431
v -5.37003608 -8.71513895 4.22000000 0.18823529 0.27450980 0.36078431
v -1.30467817 -10.78906014 4.05000000 0.18823529 0.27450980 0.36078431
v -1.30467817 -10.78906014 4.22000000 0.18823529 0.27450980 0.36078431
v -1.19042033 -8.97896735 4.05000000 0.18823529 0.27450980 0.36078431
v -1.19042033 -8.97896735 4.22000000 0.18823529 0.27450980 0.36078431
f 634 636 633
f 637 634 633
f 633 636 635
f 635 637 633
f 634 640 636
f 638 634 637
f 638 640 634
f 636 640 635
f 639 637 635
f 635 640 639
f 639 638 637
f 640 638 639

o Loading shutter 8
v 0.54539139 -9.40353594 0.15000000 0.33725490 0.40784314 0.43529412
v 0.54539139 -9.40353594 4.00000000 0.33725490 0.40784314 0.43529412
v 0.55757890 -9.21045937 0.15000000 0.33725490 0.40784314 0.43529412
v 0.55757890 -9.21045937 4.00000000 0.33725490 0.40784314 0.43529412
v 4.05626863 -9.62515179 0.15000000 0.33725490 0.40784314 0.43529412
v 4.05626863 -9.62515179 4.00000000 0.33725490 0.40784314 0.43529412
v 4.06845613 -9.43207523 0.15000000 0.33725490 0.40784314 0.43529412
v 4.06845613 -9.43207523 4.00000000 0.33725490 0.40784314 0.43529412
f 642 644 641
f 645 642 641
f 641 644 643
f 643 645 641
f 642 648 644
f 646 642 645
f 646 648 642
f 644 648 643
f 647 645 643
f 643 648 647
f 647 646 645
f 648 646 647

o Loading canopy 8
v 0.11639119 -10.87876180 4.05000000 0.18823529 0.27450980 0.36078431
v 0.11639119 -10.87876180 4.22000000 0.18823529 0.27450980 0.36078431
v 0.23064903 -9.06866900 4.05000000 0.18823529 0.27450980 0.36078431
v 0.23064903 -9.06866900 4.22000000 0.18823529 0.27450980 0.36078431
v 4.29600694 -11.14259020 4.05000000 0.18823529 0.27450980 0.36078431
v 4.29600694 -11.14259020 4.22000000 0.18823529 0.27450980 0.36078431
v 4.41026479 -9.33249740 4.05000000 0.18823529 0.27450980 0.36078431
v 4.41026479 -9.33249740 4.22000000 0.18823529 0.27450980 0.36078431
f 650 652 649
f 653 650 649
f 649 652 651
f 651 653 649
f 650 656 652
f 654 650 653
f 654 656 650
f 652 656 651
f 655 653 651
f 651 656 655
f 655 654 653
f 656 654 655

o Loading shutter 9
v 6.14607651 -9.75706599 0.15000000 0.33725490 0.40784314 0.43529412
v 6.14607651 -9.75706599 4.00000000 0.33725490 0.40784314 0.43529412
v 6.15826401 -9.56398943 0.15000000 0.33725490 0.40784314 0.43529412
v 6.15826401 -9.56398943 4.00000000 0.33725490 0.40784314 0.43529412
v 9.65695374 -9.97868185 0.15000000 0.33725490 0.40784314 0.43529412
v 9.65695374 -9.97868185 4.00000000 0.33725490 0.40784314 0.43529412
v 9.66914125 -9.78560529 0.15000000 0.33725490 0.40784314 0.43529412
v 9.66914125 -9.78560529 4.00000000 0.33725490 0.40784314 0.43529412
f 658 660 657
f 661 658 657
f 657 660 659
f 659 661 657
f 658 664 660
f 662 658 661
f 662 664 658
f 660 664 659
f 663 661 659
f 659 664 663
f 663 662 661
f 664 662 663

o Loading canopy 9
v 5.71707630 -11.23229185 4.05000000 0.18823529 0.27450980 0.36078431
v 5.71707630 -11.23229185 4.22000000 0.18823529 0.27450980 0.36078431
v 5.83133414 -9.42219906 4.05000000 0.18823529 0.27450980 0.36078431
v 5.83133414 -9.42219906 4.22000000 0.18823529 0.27450980 0.36078431
v 9.89669206 -11.49612025 4.05000000 0.18823529 0.27450980 0.36078431
v 9.89669206 -11.49612025 4.22000000 0.18823529 0.27450980 0.36078431
v 10.01094990 -9.68602746 4.05000000 0.18823529 0.27450980 0.36078431
v 10.01094990 -9.68602746 4.22000000 0.18823529 0.27450980 0.36078431
f 666 668 665
f 669 666 665
f 665 668 667
f 667 669 665
f 666 672 668
f 670 666 669
f 670 672 666
f 668 672 667
f 671 669 667
f 667 672 671
f 671 670 669
f 672 670 671

o Loading shutter 10
v 11.74676162 -10.11059605 0.15000000 0.33725490 0.40784314 0.43529412
v 11.74676162 -10.11059605 4.00000000 0.33725490 0.40784314 0.43529412
v 11.75894912 -9.91751949 0.15000000 0.33725490 0.40784314 0.43529412
v 11.75894912 -9.91751949 4.00000000 0.33725490 0.40784314 0.43529412
v 15.25763886 -10.33221191 0.15000000 0.33725490 0.40784314 0.43529412
v 15.25763886 -10.33221191 4.00000000 0.33725490 0.40784314 0.43529412
v 15.26982636 -10.13913534 0.15000000 0.33725490 0.40784314 0.43529412
v 15.26982636 -10.13913534 4.00000000 0.33725490 0.40784314 0.43529412
f 674 676 673
f 677 674 673
f 673 676 675
f 675 677 673
f 674 680 676
f 678 674 677
f 678 680 674
f 676 680 675
f 679 677 675
f 675 680 679
f 679 678 677
f 680 678 679

o Loading canopy 10
v 11.31776141 -11.58582191 4.05000000 0.18823529 0.27450980 0.36078431
v 11.31776141 -11.58582191 4.22000000 0.18823529 0.27450980 0.36078431
v 11.43201926 -9.77572911 4.05000000 0.18823529 0.27450980 0.36078431
v 11.43201926 -9.77572911 4.22000000 0.18823529 0.27450980 0.36078431
v 15.49737717 -11.84965031 4.05000000 0.18823529 0.27450980 0.36078431
v 15.49737717 -11.84965031 4.22000000 0.18823529 0.27450980 0.36078431
v 15.61163501 -10.03955751 4.05000000 0.18823529 0.27450980 0.36078431
v 15.61163501 -10.03955751 4.22000000 0.18823529 0.27450980 0.36078431
f 682 684 681
f 685 682 681
f 681 684 683
f 683 685 681
f 682 688 684
f 686 682 685
f 686 688 682
f 684 688 683
f 687 685 683
f 683 688 687
f 687 686 685
f 688 686 687

o Loading shutter 11
v 17.34744673 -10.46412611 0.15000000 0.33725490 0.40784314 0.43529412
v 17.34744673 -10.46412611 4.00000000 0.33725490 0.40784314 0.43529412
v 17.35963424 -10.27104954 0.15000000 0.33725490 0.40784314 0.43529412
v 17.35963424 -10.27104954 4.00000000 0.33725490 0.40784314 0.43529412
v 20.85832397 -10.68574196 0.15000000 0.33725490 0.40784314 0.43529412
v 20.85832397 -10.68574196 4.00000000 0.33725490 0.40784314 0.43529412
v 20.87051147 -10.49266540 0.15000000 0.33725490 0.40784314 0.43529412
v 20.87051147 -10.49266540 4.00000000 0.33725490 0.40784314 0.43529412
f 690 692 689
f 693 690 689
f 689 692 691
f 691 693 689
f 690 696 692
f 694 690 693
f 694 696 690
f 692 696 691
f 695 693 691
f 691 696 695
f 695 694 693
f 696 694 695

o Loading canopy 11
v 16.91844653 -11.93935197 4.05000000 0.18823529 0.27450980 0.36078431
v 16.91844653 -11.93935197 4.22000000 0.18823529 0.27450980 0.36078431
v 17.03270437 -10.12925917 4.05000000 0.18823529 0.27450980 0.36078431
v 17.03270437 -10.12925917 4.22000000 0.18823529 0.27450980 0.36078431
v 21.09806228 -12.20318037 4.05000000 0.18823529 0.27450980 0.36078431
v 21.09806228 -12.20318037 4.22000000 0.18823529 0.27450980 0.36078431
v 21.21232013 -10.39308757 4.05000000 0.18823529 0.27450980 0.36078431
v 21.21232013 -10.39308757 4.22000000 0.18823529 0.27450980 0.36078431
f 698 700 697
f 701 698 697
f 697 700 699
f 699 701 697
f 698 704 700
f 702 698 701
f 702 704 698
f 700 704 699
f 703 701 699
f 699 704 703
f 703 702 701
f 704 702 703

o Loading shutter 12
v 22.94813185 -10.81765616 0.15000000 0.33725490 0.40784314 0.43529412
v 22.94813185 -10.81765616 4.00000000 0.33725490 0.40784314 0.43529412
v 22.96031935 -10.62457960 0.15000000 0.33725490 0.40784314 0.43529412
v 22.96031935 -10.62457960 4.00000000 0.33725490 0.40784314 0.43529412
v 26.45900908 -11.03927202 0.15000000 0.33725490 0.40784314 0.43529412
v 26.45900908 -11.03927202 4.00000000 0.33725490 0.40784314 0.43529412
v 26.47119659 -10.84619545 0.15000000 0.33725490 0.40784314 0.43529412
v 26.47119659 -10.84619545 4.00000000 0.33725490 0.40784314 0.43529412
f 706 708 705
f 709 706 705
f 705 708 707
f 707 709 705
f 706 712 708
f 710 706 709
f 710 712 706
f 708 712 707
f 711 709 707
f 707 712 711
f 711 710 709
f 712 710 711

o Loading canopy 12
v 22.51913164 -12.29288202 4.05000000 0.18823529 0.27450980 0.36078431
v 22.51913164 -12.29288202 4.22000000 0.18823529 0.27450980 0.36078431
v 22.63338948 -10.48278923 4.05000000 0.18823529 0.27450980 0.36078431
v 22.63338948 -10.48278923 4.22000000 0.18823529 0.27450980 0.36078431
v 26.69874740 -12.55671042 4.05000000 0.18823529 0.27450980 0.36078431
v 26.69874740 -12.55671042 4.22000000 0.18823529 0.27450980 0.36078431
v 26.81300524 -10.74661763 4.05000000 0.18823529 0.27450980 0.36078431
v 26.81300524 -10.74661763 4.22000000 0.18823529 0.27450980 0.36078431
f 714 716 713
f 717 714 713
f 713 716 715
f 715 717 713
f 714 720 716
f 718 714 717
f 718 720 714
f 716 720 715
f 719 717 715
f 715 720 719
f 719 718 717
f 720 718 719

o West blue entry volume
v -46.93760725 -7.78743542 0.00000000 0.17254902 0.27843137 0.43921569
v -46.93760725 -7.78743542 6.20000000 0.17254902 0.27843137 0.43921569
v -46.41963836 0.41831859 0.00000000 0.17254902 0.27843137 0.43921569
v -46.41963836 0.41831859 6.20000000 0.17254902 0.27843137 0.43921569
v -40.83536825 -8.17262488 0.00000000 0.17254902 0.27843137 0.43921569
v -40.83536825 -8.17262488 6.20000000 0.17254902 0.27843137 0.43921569
v -40.31739936 0.03312912 0.00000000 0.17254902 0.27843137 0.43921569
v -40.31739936 0.03312912 6.20000000 0.17254902 0.27843137 0.43921569
f 722 724 721
f 725 722 721
f 721 724 723
f 723 725 721
f 722 728 724
f 726 722 725
f 726 728 722
f 724 728 723
f 727 725 723
f 723 728 727
f 727 726 725
f 728 726 727

o Gravel yard
v -8.50000000 -29.50000000 -0.20500000 0.72156863 0.70588235 0.65490196
v -8.50000000 -29.50000000 -0.01500000 0.72156863 0.70588235 0.65490196
v -8.50000000 35.50000000 -0.20500000 0.72156863 0.70588235 0.65490196
v -8.50000000 35.50000000 -0.01500000 0.72156863 0.70588235 0.65490196
v 96.50000000 -29.50000000 -0.20500000 0.72156863 0.70588235 0.65490196
v 96.50000000 -29.50000000 -0.01500000 0.72156863 0.70588235 0.65490196
v 96.50000000 35.50000000 -0.20500000 0.72156863 0.70588235 0.65490196
v 96.50000000 35.50000000 -0.01500000 0.72156863 0.70588235 0.65490196
f 730 732 729
f 733 730 729
f 729 732 731
f 731 733 729
f 730 736 732
f 734 730 733
f 734 736 730
f 732 736 731
f 735 733 731
f 731 736 735
f 735 734 733
f 736 734 735

o Green verge
v -70.00000000 -77.50000000 -0.26000000 0.34509804 0.47450980 0.29019608
v -70.00000000 -77.50000000 -0.04000000 0.34509804 0.47450980 0.29019608
v -70.00000000 -40.50000000 -0.26000000 0.34509804 0.47450980 0.29019608
v -70.00000000 -40.50000000 -0.04000000 0.34509804 0.47450980 0.29019608
v 80.00000000 -77.50000000 -0.26000000 0.34509804 0.47450980 0.29019608
v 80.00000000 -77.50000000 -0.04000000 0.34509804 0.47450980 0.29019608
v 80.00000000 -40.50000000 -0.26000000 0.34509804 0.47450980 0.29019608
v 80.00000000 -40.50000000 -0.04000000 0.34509804 0.47450980 0.29019608
f 738 740 737
f 741 738 737
f 737 740 739
f 739 741 737
f 738 744 740
f 742 738 741
f 742 744 738
f 740 744 739
f 743 741 739
f 739 744 743
f 743 742 741
f 744 742 743

o Botevgradsko Shosse
v -88.17696694 -81.42575827 -0.14000000 0.28627451 0.30196078 0.30588235
v -88.17696694 -81.42575827 -0.02000000 0.28627451 0.30196078 0.30588235
v -87.67311510 -69.43634071 -0.14000000 0.28627451 0.30196078 0.30588235
v -87.67311510 -69.43634071 -0.02000000 0.28627451 0.30196078 0.30588235
v 81.67311510 -88.56365929 -0.14000000 0.28627451 0.30196078 0.30588235
v 81.67311510 -88.56365929 -0.02000000 0.28627451 0.30196078 0.30588235
v 82.17696694 -76.57424173 -0.14000000 0.28627451 0.30196078 0.30588235
v 82.17696694 -76.57424173 -0.02000000 0.28627451 0.30196078 0.30588235
f 746 748 745
f 749 746 745
f 745 748 747
f 747 749 745
f 746 752 748
f 750 746 749
f 750 752 746
f 748 752 747
f 751 749 747
f 747 752 751
f 751 750 749
f 752 750 751

o Road line 1
v -74.49834090 -78.86600706 -0.00800000 0.86666667 0.85490196 0.77254902
v -74.49834090 -78.86600706 0.00200000 0.86666667 0.85490196 0.77254902
v -74.49372226 -78.75610406 -0.00800000 0.86666667 0.85490196 0.77254902
v -74.49372226 -78.75610406 0.00200000 0.86666667 0.85490196 0.77254902
v -65.50627774 -79.24389594 -0.00800000 0.86666667 0.85490196 0.77254902
v -65.50627774 -79.24389594 0.00200000 0.86666667 0.85490196 0.77254902
v -65.50165910 -79.13399294 -0.00800000 0.86666667 0.85490196 0.77254902
v -65.50165910 -79.13399294 0.00200000 0.86666667 0.85490196 0.77254902
f 754 756 753
f 757 754 753
f 753 756 755
f 755 757 753
f 754 760 756
f 758 754 757
f 758 760 754
f 756 760 755
f 759 757 755
f 755 760 759
f 759 758 757
f 760 758 759

o Road line 2
v -51.49834090 -78.86600706 -0.00800000 0.86666667 0.85490196 0.77254902
v -51.49834090 -78.86600706 0.00200000 0.86666667 0.85490196 0.77254902
v -51.49372226 -78.75610406 -0.00800000 0.86666667 0.85490196 0.77254902
v -51.49372226 -78.75610406 0.00200000 0.86666667 0.85490196 0.77254902
v -42.50627774 -79.24389594 -0.00800000 0.86666667 0.85490196 0.77254902
v -42.50627774 -79.24389594 0.00200000 0.86666667 0.85490196 0.77254902
v -42.50165910 -79.13399294 -0.00800000 0.86666667 0.85490196 0.77254902
v -42.50165910 -79.13399294 0.00200000 0.86666667 0.85490196 0.77254902
f 762 764 761
f 765 762 761
f 761 764 763
f 763 765 761
f 762 768 764
f 766 762 765
f 766 768 762
f 764 768 763
f 767 765 763
f 763 768 767
f 767 766 765
f 768 766 767

o Road line 3
v -28.49834090 -78.86600706 -0.00800000 0.86666667 0.85490196 0.77254902
v -28.49834090 -78.86600706 0.00200000 0.86666667 0.85490196 0.77254902
v -28.49372226 -78.75610406 -0.00800000 0.86666667 0.85490196 0.77254902
v -28.49372226 -78.75610406 0.00200000 0.86666667 0.85490196 0.77254902
v -19.50627774 -79.24389594 -0.00800000 0.86666667 0.85490196 0.77254902
v -19.50627774 -79.24389594 0.00200000 0.86666667 0.85490196 0.77254902
v -19.50165910 -79.13399294 -0.00800000 0.86666667 0.85490196 0.77254902
v -19.50165910 -79.13399294 0.00200000 0.86666667 0.85490196 0.77254902
f 770 772 769
f 773 770 769
f 769 772 771
f 771 773 769
f 770 776 772
f 774 770 773
f 774 776 770
f 772 776 771
f 775 773 771
f 771 776 775
f 775 774 773
f 776 774 775

o Road line 4
v -5.49834090 -78.86600706 -0.00800000 0.86666667 0.85490196 0.77254902
v -5.49834090 -78.86600706 0.00200000 0.86666667 0.85490196 0.77254902
v -5.49372226 -78.75610406 -0.00800000 0.86666667 0.85490196 0.77254902
v -5.49372226 -78.75610406 0.00200000 0.86666667 0.85490196 0.77254902
v 3.49372226 -79.24389594 -0.00800000 0.86666667 0.85490196 0.77254902
v 3.49372226 -79.24389594 0.00200000 0.86666667 0.85490196 0.77254902
v 3.49834090 -79.13399294 -0.00800000 0.86666667 0.85490196 0.77254902
v 3.49834090 -79.13399294 0.00200000 0.86666667 0.85490196 0.77254902
f 778 780 777
f 781 778 777
f 777 780 779
f 779 781 777
f 778 784 780
f 782 778 781
f 782 784 778
f 780 784 779
f 783 781 779
f 779 784 783
f 783 782 781
f 784 782 783

o Road line 5
v 17.50165910 -78.86600706 -0.00800000 0.86666667 0.85490196 0.77254902
v 17.50165910 -78.86600706 0.00200000 0.86666667 0.85490196 0.77254902
v 17.50627774 -78.75610406 -0.00800000 0.86666667 0.85490196 0.77254902
v 17.50627774 -78.75610406 0.00200000 0.86666667 0.85490196 0.77254902
v 26.49372226 -79.24389594 -0.00800000 0.86666667 0.85490196 0.77254902
v 26.49372226 -79.24389594 0.00200000 0.86666667 0.85490196 0.77254902
v 26.49834090 -79.13399294 -0.00800000 0.86666667 0.85490196 0.77254902
v 26.49834090 -79.13399294 0.00200000 0.86666667 0.85490196 0.77254902
f 786 788 785
f 789 786 785
f 785 788 787
f 787 789 785
f 786 792 788
f 790 786 789
f 790 792 786
f 788 792 787
f 791 789 787
f 787 792 791
f 791 790 789
f 792 790 791

o Road line 6
v 40.50165910 -78.86600706 -0.00800000 0.86666667 0.85490196 0.77254902
v 40.50165910 -78.86600706 0.00200000 0.86666667 0.85490196 0.77254902
v 40.50627774 -78.75610406 -0.00800000 0.86666667 0.85490196 0.77254902
v 40.50627774 -78.75610406 0.00200000 0.86666667 0.85490196 0.77254902
v 49.49372226 -79.24389594 -0.00800000 0.86666667 0.85490196 0.77254902
v 49.49372226 -79.24389594 0.00200000 0.86666667 0.85490196 0.77254902
v 49.49834090 -79.13399294 -0.00800000 0.86666667 0.85490196 0.77254902
v 49.49834090 -79.13399294 0.00200000 0.86666667 0.85490196 0.77254902
f 794 796 793
f 797 794 793
f 793 796 795
f 795 797 793
f 794 800 796
f 798 794 797
f 798 800 794
f 796 800 795
f 799 797 795
f 795 800 799
f 799 798 797
f 800 798 799

o Road line 7
v 63.50165910 -78.86600706 -0.00800000 0.86666667 0.85490196 0.77254902
v 63.50165910 -78.86600706 0.00200000 0.86666667 0.85490196 0.77254902
v 63.50627774 -78.75610406 -0.00800000 0.86666667 0.85490196 0.77254902
v 63.50627774 -78.75610406 0.00200000 0.86666667 0.85490196 0.77254902
v 72.49372226 -79.24389594 -0.00800000 0.86666667 0.85490196 0.77254902
v 72.49372226 -79.24389594 0.00200000 0.86666667 0.85490196 0.77254902
v 72.49834090 -79.13399294 -0.00800000 0.86666667 0.85490196 0.77254902
v 72.49834090 -79.13399294 0.00200000 0.86666667 0.85490196 0.77254902
f 802 804 801
f 805 802 801
f 801 804 803
f 803 805 801
f 802 808 804
f 806 802 805
f 806 808 802
f 804 808 803
f 807 805 803
f 803 808 807
f 807 806 805
f 808 806 807

